<svg width="551" height="736" viewBox="0 0 551 736" fill="none" xmlns="http://www.w3.org/2000/svg">
<path fill-rule="evenodd" clip-rule="evenodd" d="M221.097 1.19382C220.538 1.88096 219.659 4.88159 219.144 7.86289C216.946 20.5774 216.123 23.6847 213.594 28.8047C210.422 35.23 204.138 41.8494 198.199 45.0221C195.837 46.2841 193.669 48.0714 193.381 48.9931C192.818 50.7961 195.264 54.2162 197.117 54.2162C197.727 54.2162 200.418 56.0559 203.097 58.3041C210.797 64.7662 214.387 71.8612 219.367 90.4619C220.904 96.2001 223.137 97.8273 225.48 94.9178C226.399 93.778 227.416 91.0874 227.742 88.9386C229.2 79.3204 234.316 67.5341 239.639 61.5264C241.43 59.5054 245.295 56.342 248.227 54.4967C255.069 50.1917 255.005 48.4201 247.871 44.575C235.884 38.1129 231.254 30.1634 227.829 10.1617C227.115 5.99555 226.047 1.99226 225.456 1.26556C224.103 -0.395725 222.413 -0.423317 221.097 1.19382ZM390.224 19.4662C388.404 22.1145 388.453 23.2376 390.47 25.0976C392.614 27.0763 394.496 27.0248 396.349 24.9376C398.301 22.7391 398.233 21.4991 396.038 19.261C393.695 16.873 391.964 16.9338 390.224 19.4662ZM315.236 24.2909C314.517 26.0451 313.926 28.6327 313.923 30.0401C313.913 35.0543 312.134 39.3878 309.411 41.028C305.465 43.404 305.358 44.9291 308.881 48.6252C312.56 52.4868 313.928 55.7478 313.928 60.6553C313.928 66.1092 315.295 68.9341 317.935 68.9341C320.752 68.9341 322.047 66.5664 322.054 61.4059C322.062 55.4801 323.524 51.2027 326.555 48.2425C329.835 45.0386 329.997 42.7877 327.088 40.8449C324.61 39.1892 322.555 34.5171 321.64 28.4598C320.669 22.0252 320.253 21.1008 318.333 21.1008C317.143 21.1008 316.105 22.1706 315.236 24.2909ZM455.589 34.5282C450.786 35.379 440.535 37.8746 437.092 39.0328C429.954 41.4336 395.867 56.2289 393.782 57.8313C392.646 58.7042 369.544 69.7767 350.074 78.7804C328.822 88.6084 309.147 99.7057 291.085 112.05C276.625 121.933 278.834 121.327 256.929 121.428C232.711 121.54 225.8 122.644 217.373 127.748C211.18 131.499 204.083 139.47 201.894 145.134C199.739 150.713 198.373 159.683 198.936 164.568C199.566 170.048 202.28 179.788 204.56 184.761C205.965 187.826 205.947 187.937 203.796 189.302C202.584 190.072 199.143 193.212 196.151 196.279C191.633 200.909 190.409 202.87 188.933 207.835C185.522 219.309 187.067 230.665 195.003 252.449C197.756 260.005 198.866 264.664 199.389 270.846C200.59 285.098 205.98 297.59 215.46 308.101C217.971 310.884 220.039 313.428 220.057 313.755C220.075 314.082 218.363 315.804 216.254 317.581C214.145 319.358 210.714 322.249 208.63 324.005C206.546 325.76 203.316 327.488 201.453 327.844C196.559 328.78 191.648 331.575 189.504 334.644C186.774 338.553 184.786 347.262 185.453 352.393L186.016 356.713L181.236 359.181C171.801 364.056 170.123 364.368 165.288 362.145C161.801 360.542 158.92 360.117 150.048 359.9C141.282 359.685 137.799 359.181 132.531 357.364C128.914 356.116 125.667 354.622 125.317 354.044C124.966 353.465 124.396 348.998 124.05 344.115C122.93 328.339 120.962 315.639 119.042 311.802C116.965 307.65 109.664 301.336 103.918 298.721C101.809 297.762 100.081 296.478 100.076 295.869C100.072 295.26 99.67 291.244 99.181 286.944C97.3403 270.749 97.1562 255.642 98.645 242.933C99.4363 236.181 100.09 226.453 100.097 221.316C100.118 207.169 101.772 185.258 103.355 178.164C104.323 173.826 106.011 169.95 108.74 165.801C110.926 162.478 112.715 159.607 112.715 159.422C112.715 159.238 114.489 156.63 116.659 153.627L120.601 148.166L121.08 135.457C121.565 122.58 122.102 119.856 129.632 92.0772L131.213 86.2452L119.483 74.8241C106.476 62.1602 104.099 60.8558 96.9947 62.4794C94.7308 62.9964 92.5707 63.3523 92.1954 63.2705C91.8191 63.1877 88.8722 63.4535 85.6465 63.8601C79.0877 64.688 80.8544 63.2438 63.5401 81.9255C51.3663 95.0613 43.0435 105.229 41.5619 108.776C39.9865 112.547 40.3239 113.525 50.6706 135.165C58.6145 151.779 58.8364 152.423 60.0157 162.301C61.8988 178.066 60.3279 212.996 57.0517 228.197C54.1111 241.845 54.0389 247.019 56.6312 258.133C58.536 266.298 60.8666 286.788 60.8441 295.176L60.8332 299.268L55.9644 301.164C49.2712 303.77 44.5251 309.522 43.0994 316.757C42.2937 320.849 42.2964 322.809 43.1103 325.104C44.0938 327.875 43.9332 328.468 40.9908 332.926C37.0955 338.827 36.6029 340.695 37.0991 347.691C37.3716 351.531 38.116 354.045 39.5777 356.059C41.3977 358.57 41.5953 359.628 41.1162 364.302C40.3456 371.813 41.8091 378.646 45.0746 382.789C47.3989 385.736 47.7021 386.732 47.2175 389.82C45.9769 397.728 52.7721 410.823 58.9321 412.4C60.9171 412.907 61.0561 413.457 61.5677 422.839C61.8646 428.287 62.3166 434.606 62.572 436.883C63.3281 443.623 64.6229 460.121 64.6283 463.099C64.6373 467.126 59.5917 489.818 57.6734 494.38C56.7711 496.527 54.5198 500.301 52.6719 502.768C47.2356 510.027 46.3513 512.514 47.6443 516.916C48.2498 518.976 49.9894 521.785 51.5098 523.156C53.0301 524.529 56.7061 528.702 59.6792 532.43C64.677 538.699 65.1868 539.773 66.451 546.688C67.2026 550.802 69.4303 561.411 71.4001 570.265C74.6492 584.864 75.0526 588.117 75.7302 605.22C76.222 617.651 77.1387 627.682 78.4182 634.656C80.6613 646.878 81.0303 664.657 79.4386 683.869C78.8937 690.446 78.0184 701.62 77.4933 708.703C76.969 715.784 76.2057 721.917 75.7988 722.332C75.3909 722.748 73.6224 719.435 71.8692 714.969C64.0607 695.079 53.1754 675.442 47.6109 671.206C43.2041 667.852 39.1717 671.821 41.7848 676.941C56.1593 705.109 60.3821 713.674 60.3821 714.661C60.3821 715.317 59.265 714.618 57.9008 713.109C53.9288 708.716 47.7264 704.051 41.7685 700.977C35.5842 697.785 28.5264 696.349 27.4824 698.071C26.0144 700.492 28.3261 703.486 36.2591 709.442C46.6076 717.21 51.9113 721.787 51.2959 722.414C51.037 722.679 42.1132 722.951 31.467 723.019C10.8945 723.151 4.21572 723.892 1.57018 726.333C-0.616997 728.351 -0.507822 731.475 1.82643 733.629C3.5029 735.177 5.47082 735.414 18.7445 735.66C27.0051 735.814 36.8095 735.942 40.5315 735.945C44.2535 735.948 56.8406 735.96 68.5028 735.971C117.828 736.019 428.766 736.003 446.115 735.952C456.537 735.922 472.778 735.893 482.207 735.889C546.78 735.865 546.267 735.888 549.424 732.889C551.883 730.553 551.448 727.792 548.236 725.356C545.486 723.271 541.211 723.129 477.104 723.005C456.932 722.965 455.782 722.871 456.187 721.292C456.595 719.702 469.843 711.083 479.5 706.125C483.687 703.976 488.072 700.541 488.072 699.41C488.072 697.39 485.858 695.367 483.646 695.367C479.967 695.367 471.335 698.35 462.657 702.622C454.628 706.574 438.823 717.51 435.814 721.195C434.421 722.9 433.987 723.074 433.964 721.933C433.934 720.459 435.017 718.226 448.011 692.966C451.682 685.828 454.687 679.372 454.687 678.621C454.687 677.869 453.873 676.504 452.879 675.586C449.122 672.12 445.188 676.247 435.532 693.782C432.529 699.234 429.981 703.581 429.869 703.441C429.757 703.301 429.416 698.738 429.111 693.3C428.422 681.036 425.605 666.634 422.198 657.953C419.552 651.212 415.809 644.482 414.112 643.413C412.751 642.555 409.828 643.686 409.218 645.307C408.932 646.067 410.29 652.995 412.237 660.704C414.183 668.412 416.42 678.804 417.207 683.798C418.861 694.276 420.75 720.723 419.939 722.059C419.637 722.557 418.603 722.963 417.64 722.963C416.336 722.963 415.883 722.318 415.868 720.434C415.826 714.971 408.437 702.475 398.454 690.982C394.941 686.938 392.417 683.123 392.063 681.323C390.735 674.574 390.448 662.119 391.421 653.5C392.365 645.149 392.294 643.711 390.644 637.673C388.926 631.389 388.905 630.746 390.263 625.714C392.567 617.179 392.927 602.983 391.085 593.316C390.218 588.762 389.746 584.404 390.037 583.63C390.33 582.855 391.646 582.223 392.968 582.223C397.544 582.223 411.412 598.858 421.343 616.258C426.178 624.732 427.743 626.377 430.968 626.377C435.793 626.377 435.636 619.355 430.196 591.882C426.191 571.654 424.167 556.97 425.204 555.67C425.947 554.74 427.622 554.556 431.65 554.959C440.891 555.885 442.85 554.95 452.617 544.943L461.356 535.99L461.729 530.739C462.136 525.006 460.542 520.543 457.366 518.52C456.283 517.831 455.589 516.379 455.589 514.805C455.589 510.228 451.221 504.148 445.949 501.386C442.883 499.781 436.48 500.168 432.581 502.194C430.634 503.206 428.785 504.034 428.473 504.034C427.53 504.034 425.758 496.972 426.324 495.469C426.944 493.822 436.287 488.714 445.213 485.143C467.533 476.214 484.525 461.833 489.828 447.383C493.931 436.205 492.609 422.471 486.437 412.141C484.606 409.078 480.547 403.666 477.414 400.112C470.667 392.459 458.754 375.446 456.376 370.068C454.809 366.522 454.79 365.99 456.107 362.249C459.554 352.458 456.807 344.726 445.735 333.062C438.167 325.089 433.863 317.924 435.586 316.167C436.158 315.584 438.583 315.063 440.976 315.007C446.729 314.874 450.967 313.013 451.627 310.328C451.917 309.152 451.466 306.077 450.625 303.495C449.355 299.598 449.284 298.337 450.205 296.068C451.857 292.006 454.756 290.392 468.697 285.779C475.658 283.476 484.093 280.313 487.442 278.749C490.791 277.185 493.79 275.905 494.107 275.905C495.191 275.905 514.689 264.523 521.457 259.938C531.056 253.437 535.563 249.541 540.555 243.432C545.198 237.752 546.145 233.935 543.472 231.674C541.786 230.248 535.134 229.876 528.954 230.862C526.568 231.243 521.164 231.842 516.946 232.193C512.728 232.544 507.652 233.006 505.667 233.221C502.909 233.518 480.066 233.643 468.222 233.426C463.395 233.337 445.864 230.558 443.334 229.479C436.961 226.765 433.032 216.224 433.032 201.836C433.032 184.376 443.938 135.937 451.035 121.88C453.826 116.349 458.033 112.461 465.965 108.081C481.307 99.6091 502.51 97.4787 503.825 104.277C504.028 105.329 504.526 108.867 504.931 112.139C505.563 117.251 506.007 118.283 508.088 119.467C510.263 120.707 510.832 120.69 513.712 119.29C520.091 116.188 526.63 101.24 525.456 92.4424C524.002 81.5474 518.28 69.3748 509.434 58.3556C496.723 42.52 482.822 34.8474 465.966 34.3626C461.499 34.2347 456.83 34.3092 455.589 34.5282ZM355.469 37.8323C353.187 40.3298 353.111 43.3341 355.28 45.3348C358.342 48.1607 362.741 46.7275 363.971 42.5034C364.408 41.005 363.955 39.822 362.299 38.134C359.51 35.2907 357.858 35.2181 355.469 37.8323ZM228.24 48.6969C229.88 48.6969 229.114 51.1337 226.772 53.3662C225.487 54.5924 223.917 56.8378 223.286 58.3556L222.138 61.1152L220.969 58.5856C220.326 57.1947 219.549 56.0559 219.243 56.0559C218.937 56.0559 217.339 54.8012 215.692 53.2669C213.237 50.981 212.895 50.235 213.797 49.1274C214.401 48.3851 215.443 47.7771 216.113 47.7771C216.781 47.7771 218.202 46.572 219.27 45.0993L221.213 42.4216L224.29 45.5593C225.983 47.2849 227.76 48.6969 228.24 48.6969ZM481.709 48.8828C485.831 51.0003 490.068 54.4167 495.738 60.1953C504.787 69.4171 509.113 76.3943 507.856 79.7426C506.651 82.9512 505.658 82.2566 503.082 76.4044C500.197 69.8512 498.586 68.2111 496.644 69.854C495.9 70.4841 495.291 71.7765 495.291 72.7258C495.291 73.6761 494.887 74.4534 494.396 74.4534C493.897 74.4534 493.597 72.5115 493.719 70.084C493.913 66.1929 493.719 65.6833 491.939 65.4248C489.786 65.113 489.901 64.8343 488.01 74.9133C486.173 84.7053 483.267 85.823 484.125 76.4072C484.933 67.5368 482.768 60.7997 477.226 54.9374C474.937 52.5172 472.572 50.5367 471.968 50.5367C469.785 50.5367 469.949 53.2071 472.371 57.1202C473.862 59.5275 475.014 62.8998 475.269 65.6042C475.812 71.358 474.558 70.9781 471.178 64.3633C468.623 59.362 460.473 51.4566 457.872 51.4566C455.201 51.4566 455.312 55.2124 458.071 58.2176C461.984 62.4812 463.71 65.4009 463.71 67.7595C463.71 68.9111 463.523 69.854 463.295 69.854C463.067 69.854 460.959 67.7604 458.611 65.2013C453.833 59.993 444.488 54.2162 440.84 54.2162C439.523 54.2162 438.446 54.4949 438.446 54.8362C438.446 55.1774 441.224 58.386 444.62 61.9652C448.016 65.5453 451.266 69.3803 451.841 70.4878C453.982 74.6097 451.11 73.3284 445.234 67.5414C441.197 63.5658 438.453 61.5752 437.007 61.5752C434.307 61.5752 434.17 63.6403 436.654 66.8598C439.336 70.336 438.17 70.4556 433.212 67.2131C428.852 64.3596 424.009 63.3855 424.009 65.3613C424.009 65.9261 426.807 69.1742 430.228 72.5796C436.828 79.1502 442.032 87.2424 442.047 90.9568C442.053 92.8407 440.494 91.563 432.355 83.0155C423.153 73.3514 422.276 72.6826 415.24 69.9616C406.872 66.7255 405.468 66.5241 404.742 68.453C404.23 69.8126 406.416 71.9329 414.981 78.384C419.135 81.5125 420.753 84.572 418.253 84.572C417.496 84.572 413.792 82.9162 410.023 80.8925C402.108 76.6427 396.038 75.8359 396.038 79.0343C396.038 80.2237 397.254 81.4876 399.546 82.6798C401.476 83.6834 406.247 87.1071 410.148 90.2871C416.043 95.0935 416.907 96.1191 415.258 96.3583C414.168 96.5165 410.31 95.2112 406.687 93.4579C388.189 84.5094 383.052 82.965 381.906 86.0079C381.484 87.1274 381.816 87.9948 382.915 88.6525C383.816 89.1906 387.237 91.4793 390.52 93.7366C393.803 95.9949 398.431 98.9302 400.804 100.259C408.884 104.782 418.589 114.008 415.266 114.008C414.924 114.008 411.979 112.377 408.724 110.384C405.468 108.391 396.308 103.759 388.368 100.09C377.614 95.1211 372.902 93.4055 369.897 93.365C366.859 93.3246 365.789 93.6815 365.565 94.8138C365.352 95.8892 367.654 97.624 373.66 100.916C378.276 103.446 384.894 107.074 388.368 108.979C401.4 116.126 406.634 119.514 410.396 123.236C415.682 128.465 414.07 130.107 408.165 125.512C397.526 117.233 367.588 104.519 354.081 102.544C352.096 102.254 349.154 101.772 347.545 101.472C343.342 100.69 340.095 101.727 340.095 103.852C340.095 106.206 340.568 106.43 348.911 108.043C352.856 108.806 358.923 110.415 362.394 111.618C368.437 113.714 395.828 129.126 402.297 134.07C405.96 136.87 414.986 146.301 414.986 147.328C414.986 149.168 411.998 147.647 407.615 143.575C400.832 137.274 391.16 131.191 378.633 125.347C363.419 118.25 363.855 118.389 355.885 118.109C351.915 117.969 345.584 117 341.815 115.956C335.42 114.184 327.25 113.298 315.959 113.15C313.353 113.116 311.225 112.777 311.23 112.398C311.239 111.484 320.877 105.201 324.275 103.893C325.748 103.326 327.475 102.421 328.113 101.881C329.607 100.617 361.48 85.0347 364.457 84.113C365.698 83.7284 376.661 78.4429 388.819 72.368C410.977 61.2955 415.049 59.4171 433.483 51.7629C448.689 45.4498 450.824 45.0101 464.117 45.4572C475.166 45.8288 476.125 46.0155 481.709 48.8828ZM146.104 50.5284C145.489 52.0416 143.613 54.1453 141.934 55.2032C138.223 57.5415 138.043 59.9212 141.396 62.3552C142.778 63.3588 144.471 65.2491 145.158 66.5572C146.796 69.6783 149.978 69.705 151.362 66.6078C151.934 65.3282 153.826 63.425 155.567 62.3773C157.308 61.3305 158.733 60.0059 158.733 59.4346C158.733 58.8634 157.211 56.859 155.349 54.9815C153.489 53.1031 151.254 50.7142 150.386 49.672C148.255 47.1148 147.423 47.2813 146.104 50.5284ZM110.872 79.2827L119.831 87.7915L119.348 91.9309C119.083 94.2076 117.72 99.7959 116.318 104.349C114.918 108.903 113.501 113.974 113.172 115.618C112.543 118.753 110.894 119.769 110.934 116.997C110.947 116.112 111.748 111.869 112.715 107.569C113.683 103.268 114.484 97.4263 114.497 94.5875C114.516 90.1896 114.11 88.8972 111.749 85.8699C106.295 78.8724 100.672 76.2462 92.7178 76.9812L87.0017 77.5101L78.2224 85.823C68.6435 94.8929 67.0808 96.0658 66.2985 94.7752C65.7959 93.9464 81.883 75.8175 84.7054 74.033C85.8351 73.3182 95.8172 71.3617 100.773 70.8843C101.4 70.8236 105.945 74.6024 110.872 79.2827ZM285.468 73.0036C284.176 75.0136 284.171 75.5011 285.414 77.9516C286.564 80.2191 288.48 81.8123 290.056 81.8123C290.244 81.8123 291.226 80.9063 292.238 79.7988C294.521 77.3013 294.597 74.297 292.427 72.2963C290.067 70.1189 287.13 70.417 285.468 73.0036ZM99.3154 94.318C99.6384 96.2939 100.192 102.514 100.545 108.141L101.188 118.372L95.7784 126.538C92.8035 131.03 89.2773 135.737 87.941 136.999C85.5896 139.221 85.4823 139.237 84.5348 137.511C83.9962 136.53 81.9967 134.002 80.0901 131.894L76.6235 128.06V114.626V101.191L80.8038 96.3307C83.1029 93.6585 86.0282 90.5934 87.3049 89.5218C89.5778 87.6121 89.7204 87.6048 94.1768 89.1492C98.396 90.6109 98.7695 90.9872 99.3154 94.318ZM106.754 90.6266C107.557 92.7607 107.396 96.7925 106.447 98.3222C105.794 99.3745 105.526 99.1823 105.168 97.4023C103.794 90.5815 103.759 89.1713 104.972 89.1713C105.65 89.1713 106.453 89.8263 106.754 90.6266ZM255.87 93.6134C252.62 97.2745 255.124 102.969 259.983 102.969C262.302 102.969 265.204 99.7535 265.204 97.1825C265.204 95.3363 261.308 91.9309 259.196 91.9309C258.188 91.9309 256.691 92.688 255.87 93.6134ZM188.94 95.65C188.159 97.1899 186.524 98.9118 185.307 99.4776C182.351 100.85 182.32 104.489 185.251 105.85C186.438 106.401 187.916 107.819 188.537 109.001C189.157 110.183 190.191 111.357 190.835 111.608C192.081 112.096 201.141 103.841 201.141 102.219C201.141 101.689 200.009 100.434 198.627 99.4297C197.245 98.4262 195.552 96.5358 194.865 95.2278C193.193 92.0422 190.679 92.2216 188.94 95.65ZM85.0546 98.1318C81.1593 102.466 80.839 103.851 81.2911 114.393C81.6213 122.092 81.9245 123.343 84.1947 126.376C86.537 129.507 86.8483 129.654 88.301 128.314C89.1654 127.516 91.3959 124.61 93.2565 121.855C96.5796 116.937 96.623 116.763 95.6548 112.163C95.1125 109.586 94.6695 105.429 94.6695 102.924C94.6695 99.5962 94.1831 97.8742 92.8649 96.5303C90.2699 93.8848 88.5537 94.2361 85.0546 98.1318ZM67.0266 107.238C67.8441 113.314 67.7367 116.962 66.7586 116.346C65.6434 115.643 63.7034 105.981 64.3387 104.293C65.2996 101.74 66.4582 103.009 67.0266 107.238ZM57.9991 111.018C58.7534 113.422 60.2521 118.492 61.3295 122.287C63.7937 130.964 64.557 132.452 71.0779 141.293C74.0023 145.259 78.0356 151.838 80.0405 155.914C83.8473 163.652 85.8152 166.092 87.4285 165.076C87.9555 164.743 93.1265 158.427 98.9202 151.039C104.714 143.652 109.616 138.103 109.814 138.709C110.012 139.315 107.281 144.336 103.744 149.865C92.642 167.223 92.6239 167.287 91.8362 190.817C90.6461 226.374 89.4226 244.63 88.2289 244.63C86.4306 244.63 86.2934 240.852 87.3753 221.104C88.7684 195.695 88.7937 176.357 87.4375 173.775C86.8817 172.715 85.7439 171.982 84.9093 172.145C83.2157 172.475 83.1047 173.594 81.0863 210.594C79.3854 241.78 79.5505 245.671 83.2473 261.647C86.7121 276.627 87.9924 284.184 87.0649 284.184C86.2014 284.184 81.874 273.999 78.4795 263.977C74.8649 253.307 74.0546 242.451 75.6039 225.439C76.9248 210.922 77.4915 180.186 76.6235 170.117C75.9874 162.745 75.6409 161.866 64.1149 138.396C57.5958 125.12 52.2614 113.748 52.2614 113.125C52.2614 111.673 55.1569 106.649 55.9924 106.649C56.3416 106.649 57.2448 108.615 57.9991 111.018ZM331.072 119.11C332.809 119.374 337.681 120.58 341.9 121.79C346.118 123.001 353.136 124.826 357.495 125.847C366.87 128.042 378.258 134.258 389.137 143.115C398.865 151.036 406.946 161.841 403.141 161.841C402.58 161.841 399.399 159.222 396.07 156.02C383.177 143.621 355.236 128.707 347.317 129.998C345.512 130.292 342.64 130.122 340.937 129.62C333.535 127.436 311.138 125.27 293.852 125.065C291.17 125.033 292.104 123.306 295.657 121.733C302.55 118.68 319.841 117.399 331.072 119.11ZM106.02 128.225C104.698 130.524 103 132.405 102.248 132.405C100.677 132.405 101.023 131.635 104.855 126.614C108.367 122.011 109.049 122.954 106.02 128.225ZM155.626 130.771C153.71 133.559 153.862 136.639 156.026 138.844C158.311 141.174 159.699 141.161 162.671 138.777C166.827 135.446 164.797 128.726 159.635 128.726C157.967 128.726 156.526 129.461 155.626 130.771ZM276.483 131.554C293.626 133.615 315.999 141.247 332.425 150.639C355.697 163.945 377.992 180.739 377.992 184.964C377.992 187.708 375.029 187.009 370.215 183.128C361.812 176.355 339.03 162.706 319.342 152.65C306.496 146.088 285.779 139.694 268.71 137.023C253.85 134.698 232.502 134.948 222.262 137.568C220.549 138.006 220.183 137.824 220.593 136.738C220.88 135.973 222.002 135.089 223.084 134.773C224.167 134.458 227.285 133.53 230.014 132.712C232.906 131.845 240.248 130.991 247.609 130.665C261.629 130.044 264.703 130.139 276.483 131.554ZM100.083 136.688C100.083 138.67 96.2729 143.928 91.6874 148.273C87.8093 151.948 87.0053 152.299 86.0552 150.733C85.5057 149.827 97.8429 135.55 99.4065 135.282C99.7792 135.217 100.083 135.85 100.083 136.688ZM483.174 151.65C482.223 152.721 481.283 156.026 480.791 160.032C479.693 168.937 477.114 173.474 471.187 176.92C464.165 181.004 463.896 183.843 470.329 185.994C475.499 187.723 479.604 193.904 480.407 201.171C481.188 208.222 482.002 210.728 483.896 211.909C485.16 212.696 485.829 212.458 487.227 210.722C488.188 209.528 488.974 207.606 488.974 206.45C488.974 205.294 489.788 201.663 490.783 198.381C492.255 193.52 493.302 191.833 496.422 189.285C498.529 187.565 501.397 185.649 502.796 185.028C506.776 183.262 505.709 180.514 499.802 177.323C497.073 175.848 494.144 173.728 493.294 172.611C491.618 170.41 488.974 159.945 488.974 155.516C488.974 152.964 487.042 149.883 485.441 149.883C485.057 149.883 484.037 150.679 483.174 151.65ZM523.14 155.385C519.822 158.767 519.872 161.092 523.327 164.056C526.382 166.676 528.359 166.277 531.54 162.396C533.57 159.921 533.559 159.438 531.399 156.346C528.74 152.538 526.221 152.245 523.14 155.385ZM22.9637 159.051C20.7332 161.564 20.9245 165.512 23.3751 167.535C26.2607 169.917 28.308 169.603 30.977 166.37C33.859 162.879 33.8689 162.324 31.0979 159.5C28.4262 156.776 25.1437 156.595 22.9637 159.051ZM144.675 159.2C144.329 159.772 143.725 163.483 143.332 167.45C142.469 176.186 140.878 178.725 134.996 180.76C129.423 182.688 129.351 185.396 134.822 187.298C139.011 188.755 140.687 190.672 140.687 194.008C140.687 197.694 138.42 200.145 133.948 201.293C130.591 202.155 129.859 202.719 129.859 204.444C129.859 207.115 131.457 208.755 134.058 208.755C139.93 208.755 142.278 212.109 143.312 221.973C144.048 228.999 145.848 231.526 148.921 229.849C150.633 228.916 151.009 227.792 151.933 220.853C152.92 213.446 154.548 210.823 158.89 209.639C163.312 208.434 165.049 207.251 165.049 205.446C165.049 203.89 160.441 201.396 157.564 201.396C153.268 201.396 151.231 196.415 153.281 190.919C153.853 189.384 155.679 187.929 158.695 186.607C162.351 185.004 163.244 184.179 163.244 182.405C163.244 180.147 161.642 179.061 156.729 177.991C153.587 177.308 152.455 175.074 151.413 167.497C150.95 164.133 150.351 160.656 150.081 159.772C149.528 157.965 145.671 157.557 144.675 159.2ZM283.463 165.467C285.579 165.944 289.95 166.802 293.175 167.376C301.793 168.908 311.296 172.354 322.524 178.016C331.096 182.341 333.663 184.21 341.07 191.526C350.344 200.686 358.951 211.699 357.28 212.267C356.717 212.458 354.082 211.715 351.423 210.615C345.712 208.252 341.448 208.385 341.448 210.927C341.448 212.189 342.911 213.178 347.018 214.694C354.36 217.405 361.111 221.904 364.853 226.581C369.971 232.979 376.187 247.128 376.187 252.382C376.187 254.707 373.672 256.389 373.019 254.503C372.803 253.879 371.574 249.927 370.289 245.723C367.719 237.313 365.954 236.241 365.581 242.862C365.181 249.98 364.425 252.862 362.712 253.796C361.158 254.643 361.051 254.252 361.137 248.058C361.205 243.171 360.76 240.435 359.459 237.731C357.315 233.272 354.869 232.74 355.223 236.811C355.356 238.329 355.547 242.496 355.649 246.07C355.819 252.036 355.587 252.966 352.812 257.374C351.149 260.016 350.056 262.45 350.384 262.784C350.711 263.118 354.519 263.429 358.846 263.475C369.122 263.585 374.275 266.315 368.459 268.569C364.832 269.975 361.508 269.649 353.643 267.116C346.804 264.913 346.168 264.856 343.533 266.196C341.985 266.983 340.174 267.627 339.505 267.627C337.157 267.627 338.325 269.575 341.478 270.918C343.231 271.665 349.119 273.573 354.562 275.158C365.948 278.473 367.73 280.505 359.251 280.505C353.491 280.505 344.411 278.213 333.133 273.912C325.39 270.96 322.951 270.967 322.951 273.941C322.951 275.745 329.099 280.373 334.007 282.264C335.373 282.791 338.216 284.016 340.323 284.987C342.431 285.959 345.678 287.396 347.539 288.181C351.706 289.94 351.846 291.162 347.966 291.904C341.941 293.056 324.566 286.774 312.606 279.119C308.312 276.37 304.126 274.005 303.305 273.863C300.663 273.407 301.146 276.36 304.433 280.749C308.542 286.235 318.822 292.707 331.871 298.023C337.386 300.27 341.9 302.386 341.9 302.724C341.9 303.063 340.377 303.597 338.516 303.913C329.347 305.464 305.24 294.99 294.373 284.733C287.952 278.672 285.446 277.475 284.492 280.009C282.904 284.229 296.541 297.064 310.574 304.558C320.408 309.809 322.505 312.455 316.452 311.976C312.058 311.629 301.186 307.015 296.524 303.519C294.486 301.991 291.885 300.742 290.742 300.742C283.958 300.742 295.211 312.374 308.063 318.645C312.53 320.824 317.3 323.059 318.665 323.613C321.759 324.867 321.848 326.284 318.879 327.044C311.1 329.034 292.225 319.858 280.382 308.327C276.933 304.97 274.22 304.755 274.235 307.842C274.24 308.743 276.27 312.143 278.747 315.396C283.435 321.554 284.241 323.403 281.823 322.457C281.038 322.15 279.774 321.899 279.012 321.899C276.825 321.899 263.668 308.347 258.261 300.524C252.706 292.489 252.5 292.291 250.809 293.357C249.01 294.49 251.014 301.03 255.376 308.262C259.388 314.911 259.526 315.46 257.181 315.46C254.087 315.46 245.583 304.856 240.691 294.898C235.722 284.784 234.629 283.464 233.026 285.647C232.201 286.77 232.518 288.682 234.513 294.598C235.907 298.737 237.705 303.675 238.507 305.571C240.643 310.627 238.397 310.15 233.403 304.489C228.702 299.157 223.84 289.327 220.973 279.357C218.914 272.194 217.363 269.721 215.617 270.821C214.008 271.836 214.571 277.152 217.269 286.405C220.218 296.518 219.271 297.545 214.992 288.872C210.975 280.729 209.262 272.859 209.262 262.547C209.262 254.447 209.065 253.443 206.92 250.576C204.159 246.885 201.141 237.599 201.141 232.794C201.141 228.897 203.233 225.312 205.509 225.312C206.366 225.312 209.287 227.606 211.999 230.409C234.428 253.589 283.618 262.389 319.733 249.681C326.93 247.148 330.163 246.83 331.794 248.493C333.239 249.967 333.112 253.754 331.523 256.588C328.725 261.578 331.194 262.627 337.921 259.307C345.17 255.73 346.48 247.641 340.747 241.873C335.183 236.275 329.612 234.318 319.534 234.417C311.307 234.499 309.04 235.576 309.726 239.077C310.21 241.543 310.043 241.676 305.085 242.769C297.157 244.517 276.201 245.039 266.709 243.726C247.106 241.013 229.544 234.126 221.555 226.017C219.121 223.546 219.061 223.31 220.574 222.181C222.836 220.495 221.745 218.383 217.463 216.155C213.125 213.9 206.566 213.703 201.114 215.664C198.989 216.428 197.146 216.945 197.021 216.814C196.524 216.294 199.195 209.622 201.517 205.583C204.478 200.431 209.781 196.336 215.889 194.488C222.538 192.475 222.545 192.479 222.099 197.974C221.579 204.359 222.966 207.506 230.357 216.71C239.303 227.849 243.849 229.346 253.558 224.349L259.004 221.546L262.121 224.336C266.018 227.825 268.736 228.544 272.823 227.17C276.76 225.844 278.739 223.125 278.739 219.038C278.739 214.92 275.143 211.532 267.429 208.384C261.645 206.023 261.387 206 256.233 207.361C248.698 209.352 246.96 209.148 243.943 205.916C239.687 201.357 238.12 200.818 236.294 203.285L234.734 205.394L233.276 202.521C231.134 198.298 231.473 196.042 234.752 192.72C236.955 190.488 239.041 189.479 243.138 188.664C248.131 187.671 249.133 187.766 254.967 189.789C258.472 191.005 262.998 193.118 265.025 194.485C271.181 198.638 273.128 194.869 267.043 190.578C262.936 187.682 262.719 187.114 265.204 185.758C269.577 183.372 264.639 174.707 257.845 172.841C253.463 171.638 249.681 172.725 242.872 177.142C239.754 179.165 238.135 179.788 238.135 178.965C238.135 176.925 245.594 170.529 249.918 168.86C259.721 165.077 274.907 163.541 283.463 165.467ZM71.1303 183.634C71.1754 188.983 70.8226 193.252 70.3074 193.577C69.7182 193.948 69.4466 189.094 69.526 179.603C69.6135 168.968 69.8346 166.296 70.3489 169.66C70.7351 172.19 71.087 178.478 71.1303 183.634ZM176.779 171.04C174.391 173.474 174.503 175.242 177.217 178.01C179.365 180.199 179.559 180.232 181.729 178.783C184.671 176.817 184.806 172.641 181.991 170.632C179.411 168.789 178.951 168.825 176.779 171.04ZM302.65 179.262C294.194 181.37 287.709 188.027 286.396 195.948C285.709 200.095 285.426 200.232 282.772 197.691C280.264 195.289 275.56 194.649 273.775 196.469C271.929 198.35 271.967 198.417 275.794 200.047C282.238 202.792 287.147 209.58 288.244 217.264C288.779 221.006 289.163 221.633 290.917 221.633C293.018 221.633 294.041 219.621 294.065 215.442C294.074 214.003 295.087 212.87 297.461 211.643C303.379 208.586 307.242 208.461 316.873 211.017C321.717 212.302 326.995 213.348 328.602 213.34C333.001 213.319 339.608 211.041 339.918 209.438C340.386 207.023 337.37 196.672 335.289 193.55C332.874 189.926 326.466 184.37 322.111 182.125C318.627 180.33 310.544 178.341 307.342 178.493C306.25 178.545 304.138 178.891 302.65 179.262ZM317.086 191.387C319.071 191.947 321.731 193.156 322.997 194.074C325.523 195.903 330.695 204.847 329.771 205.788C329.454 206.112 325.454 205.04 320.884 203.408C312.516 200.418 304.414 199.362 300.619 200.767C295.338 202.724 300.46 194.754 306.188 192.101C310.482 190.114 312.182 190.002 317.086 191.387ZM70.2938 211.439C70.32 215.68 68.3133 225.312 67.4029 225.312C66.5267 225.312 66.9445 217.371 68.2176 209.814C68.7969 206.376 70.2695 207.529 70.2938 211.439ZM396.94 226.363C401.654 227.831 408.963 230.219 413.181 231.671C449.63 244.215 460.669 246.222 487.621 245.205C496.554 244.868 508.305 243.99 513.734 243.254C519.165 242.518 523.765 242.076 523.958 242.274C524.777 243.107 522.152 246.45 519.239 248.286C513.67 251.794 482.841 254.384 465.454 252.805C458.387 252.163 444.701 249.314 432.13 245.867C429.4 245.119 426.355 244.482 425.362 244.45C424.37 244.418 421.325 243.876 418.595 243.245C415.866 242.614 410.587 241.588 406.865 240.964C398.616 239.582 392.588 237.743 389.811 235.759C387.298 233.965 385.21 229.192 385.21 225.243C385.21 222.852 385.481 222.471 386.789 223.026C387.657 223.394 392.225 224.896 396.94 226.363ZM124.134 237.113C120.876 240.784 123.732 246.969 128.141 245.793C132.329 244.677 132.562 238.402 128.485 236.508C125.59 235.164 125.903 235.121 124.134 237.113ZM17.3225 237.501C16.8425 238.134 16.2028 239.359 15.9005 240.224C15.5982 241.089 13.9163 242.745 12.1623 243.903C8.50074 246.321 8.03606 248.844 10.9974 250.219C12.1235 250.742 14.003 252.596 15.1741 254.339C16.3462 256.082 17.8874 257.508 18.6002 257.508C20.0881 257.508 28.8016 248.692 28.8016 247.186C28.8016 246.636 27.2009 244.79 25.2456 243.083C23.2894 241.376 21.4343 239.163 21.1239 238.165C20.4842 236.111 18.6236 235.785 17.3225 237.501ZM68.0137 243.02C68.2601 244.159 69.1028 249.086 69.886 253.969C70.6683 258.853 73.1009 269.542 75.2917 277.723C77.4815 285.904 79.5343 294.016 79.8537 295.75L80.4339 298.902H76.3771H72.3195L71.7953 294.073C71.5074 291.417 71.0175 285.932 70.7071 281.885C70.3967 277.837 68.9647 267.618 67.5247 259.176C66.0846 250.733 65.1498 243.178 65.4476 242.388C66.2299 240.311 67.4949 240.622 68.0137 243.02ZM437.823 260.453C433.549 265.01 429.683 266.891 423.076 267.63C418.131 268.183 415.855 269.001 412.007 271.605C405.359 276.103 400.337 277.293 393.818 275.913C387.949 274.671 386.831 273.063 389.682 269.969C391.346 268.164 392.517 267.823 396.788 267.901C400.964 267.978 403.89 267.168 412.73 263.493C423.027 259.211 434.746 256.452 438.725 257.374C440.172 257.709 440.069 258.061 437.823 260.453ZM149.836 261.417C149.333 263.062 148.485 267.409 147.953 271.08C147.421 274.75 146.332 279.416 145.535 281.449C144.194 284.864 137.837 291.543 135.926 291.543C134.106 291.543 129.859 295.459 129.859 297.137C129.859 298.291 131.561 300.035 134.664 302.058C137.307 303.782 140.74 306.668 142.293 308.471C145.076 311.703 148.807 321.786 148.807 326.075C148.807 329.702 150.446 332.938 152.284 332.938C154.913 332.938 155.829 331.155 156.539 324.649C157.821 312.909 161.07 307.253 169.363 302.321C176.313 298.188 176.596 296.092 170.621 293.005C161.897 288.498 157.943 281.143 156.489 266.716C156.158 263.432 155.463 260.224 154.944 259.587C153.185 257.426 150.797 258.282 149.836 261.417ZM496.193 261.057C496.193 262.167 481.147 270.015 470.928 274.234C466.214 276.18 457.687 278.967 451.98 280.426C443.155 282.681 439.782 283.082 429.418 283.108C422.716 283.125 416.084 283.584 414.68 284.128C412.134 285.115 410.474 284.782 410.474 283.286C410.474 282.85 411.99 281.54 413.844 280.371C416.703 278.57 418.448 278.246 425.371 278.227C433.401 278.205 433.634 278.141 440.104 274.156L446.678 270.107L452.704 271.598C458.713 273.085 458.738 273.083 461.897 270.876C466.043 267.979 472.988 265.257 483.064 262.579C491.723 260.279 496.193 259.761 496.193 261.057ZM115.925 263.232C114.105 265.881 114.154 267.004 116.17 268.864C118.242 270.775 120.299 270.802 122.126 268.941C124.867 266.146 122.88 261.187 119.018 261.187C118.09 261.187 116.697 262.107 115.925 263.232ZM17.8107 285.334C14.3738 288.135 15.9763 294.303 20.1413 294.303C22.4034 294.303 25.1924 291.71 25.1924 289.606C25.1924 287.477 22.5261 284.184 20.8018 284.184C19.9329 284.184 18.5866 284.702 17.8107 285.334ZM156.005 299.985C154.528 301.491 153.319 303.105 153.319 303.572C153.319 304.04 152.913 304.421 152.417 304.421C151.92 304.421 151.514 303.857 151.514 303.166C151.514 302.475 150.714 300.873 149.736 299.605C147.974 297.322 147.974 297.284 149.712 295.68C150.678 294.789 151.721 293.25 152.03 292.259C152.537 290.629 152.881 290.781 155.641 293.852L158.69 297.246L156.005 299.985ZM512.123 294.146C510.164 296.352 510.228 299.166 512.28 301.059C514.425 303.038 516.306 302.986 518.159 300.899C520.239 298.557 520.022 295.591 517.647 293.895C515.049 292.04 513.947 292.09 512.123 294.146ZM99.8261 306.816C105.763 308.843 109.735 312.097 110.477 315.54C111.274 319.237 109.579 321.207 108.708 317.597C107.907 314.276 105.747 310.861 104.448 310.861C103.766 310.861 103.605 312.493 103.951 315.907C104.551 321.835 103.745 322.875 101.522 319.04C99.5464 315.629 97.7833 316.069 97.9602 319.928C98.0883 322.709 97.9575 322.819 94.4908 322.819C86.0462 322.819 81.8315 315.849 86.0976 308.939C88.4084 305.197 93.0038 304.486 99.8261 306.816ZM74.4083 308.296C74.5744 308.465 74.4742 311.791 74.1855 315.687L73.6594 322.77L67.2468 322.743C63.7188 322.728 59.6377 322.843 58.1769 322.997C56.0682 323.221 55.2299 322.756 54.1165 320.747C52.8181 318.405 52.8479 317.956 54.5171 314.768C57.1392 309.759 62.9491 306.905 69.2743 307.519C71.9324 307.777 74.2423 308.127 74.4083 308.296ZM392.834 309.828C392.363 310.271 389.744 311.365 387.015 312.257C382.157 313.845 371.699 319.063 365.301 323.093C355.876 329.029 346.411 337.962 346.411 340.922C346.411 343.572 350.933 342.033 355.737 337.748C361.062 332.997 376.971 324.158 378.972 324.839C379.702 325.086 378.194 326.57 375.262 328.485C372.545 330.261 369.736 332.437 369.021 333.323C368.305 334.208 365.97 336.159 363.833 337.658C359.627 340.608 358.767 343.471 361.793 344.45C363.047 344.855 364.63 344.278 366.718 342.654C371.101 339.247 384.918 332.018 387.048 332.018C388.035 332.018 391.772 331.19 395.355 330.178C398.936 329.166 403.296 328.358 405.043 328.384C407.712 328.423 406.911 328.914 400.01 331.469C389.287 335.44 383.342 338.805 378.405 343.696C371.742 350.298 373.82 353.286 381.437 348.057C387.233 344.078 394.755 340.675 402.787 338.401C409.937 336.376 410.474 336.307 410.474 337.422C410.474 337.865 407.074 339.891 402.917 341.925C391.5 347.509 378.1 357.13 363.4 370.294C339.229 391.942 335.565 394.919 334.466 393.797C332.96 392.262 334.51 389.908 344.237 378.957C348.943 373.659 353.02 368.401 353.298 367.273C354.092 364.051 351.016 356.046 347.425 351.985C343.131 347.128 336.486 343.996 330.449 343.985C322.658 343.97 323.152 342.246 332.425 337.08C335.899 335.144 341.381 331.814 344.607 329.679C355.311 322.595 375.314 312.816 382.954 310.933C391.005 308.949 394.141 308.598 392.834 309.828ZM65.2455 313.093C64.2439 315.753 65.3014 318.673 67.3749 318.974C68.4919 319.135 69.4051 318.859 69.4051 318.358C69.4051 317.859 69.6316 316.849 69.9086 316.114C70.4229 314.746 68.1626 311.78 66.6052 311.78C66.1288 311.78 65.5171 312.371 65.2455 313.093ZM416.791 319.021C416.791 319.461 414.253 320.112 411.151 320.467C405.912 321.067 396.49 322.922 391.752 324.288C390.261 324.718 389.722 324.488 389.722 323.421C389.722 322.512 390.985 321.646 393.105 321.102C394.967 320.623 398.113 319.822 400.098 319.321C404.652 318.171 416.791 317.953 416.791 319.021ZM226.944 325.406C224.818 329.597 217.395 337.494 213.875 339.31C212.082 340.235 209.324 341.276 207.745 341.623C202.836 342.703 202.498 343.8 203.642 354.957C204.642 364.696 203.73 377.091 202.015 377.091C201.65 377.091 201.074 374.297 200.736 370.882C200.398 367.468 199.335 361.225 198.375 357.011C195.173 342.959 196.254 340.213 206.621 336.066C210.128 334.664 214.694 332.022 216.769 330.196C225.523 322.49 229.333 320.696 226.944 325.406ZM266.357 326.825C271.209 328.595 277.976 330.69 281.395 331.483C284.814 332.276 288.761 333.371 290.167 333.915C294.735 335.686 290.37 336.924 281.541 336.364C270.684 335.674 262.402 332.84 257.933 328.285C255.977 326.291 254.377 324.197 254.377 323.631C254.377 322.462 254.431 322.477 266.357 326.825ZM508.12 326.728C507.61 327.361 506.533 332.419 505.728 337.967C503.856 350.858 501.414 355.029 493.26 359.261C487.869 362.058 487.595 364.369 492.358 366.878C494.22 367.859 497.536 370.542 499.731 372.841C503.381 376.665 503.887 377.786 505.687 386.025C507.154 392.741 508.043 395.107 509.185 395.335C511.499 395.797 513.229 393.845 513.818 390.108C515.867 377.115 518.5 372.497 526.605 367.667C532.753 364.005 533.291 361.925 528.8 359.173C519.205 353.292 516.061 348.159 514.336 335.561C513.116 326.651 510.816 323.383 508.12 326.728ZM475.44 330.178C473.298 332.362 473.147 334.578 474.961 337.218C477.03 340.228 479.817 340.517 482.306 337.979C484.878 335.358 485.089 331.961 482.813 329.861C480.594 327.814 477.634 327.941 475.44 330.178ZM78.1438 331.174C79.5406 331.722 82.298 332.456 84.2705 332.806L87.8562 333.441L83.7056 335.92C79.3024 338.551 78.4606 340.225 78.4407 346.385C78.429 349.976 78.2684 350.201 75.3684 350.681C73.6856 350.959 70.6809 350.964 68.6923 350.692C64.6752 350.143 63.9913 348.68 63.9913 340.641C63.9913 336.371 63.4887 335.903 60.9442 337.8C59.7505 338.69 59.4284 339.997 59.644 343.068C59.8741 346.346 60.3758 347.381 62.1867 348.31C63.4273 348.947 64.0364 349.507 63.5401 349.554C61.0778 349.789 50.7239 349.354 49.4236 348.961C47.2635 348.309 46.4849 342.76 48.1054 339.565C49.8865 336.054 51.2824 334.982 57.4261 332.406C63.1828 329.993 73.5593 329.376 78.1438 331.174ZM250.645 339.371C253.137 341.092 257.279 342.686 261.923 343.71L269.264 345.328L263.892 346.023C260.938 346.404 257.893 347.367 257.125 348.162C255.865 349.468 255.902 349.738 257.507 350.95C260.254 353.026 265.709 354.22 271.822 354.082C279.96 353.899 288.126 354.75 288.475 355.817C288.736 356.614 280.61 359.717 278.887 359.479C274.852 358.922 272.358 359.834 271.093 362.326C269.32 365.821 263.251 370.658 262.711 369.006C261.149 364.23 255.288 360.892 252.842 363.386C252.119 364.123 251.671 363.809 251.198 362.236C250.84 361.047 249.249 358.418 247.661 356.394C243.147 350.64 243.142 350.598 246.654 348.485C250.458 346.197 250.633 345.032 247.609 342.136C245.51 340.125 244.496 336.596 246.03 336.634C246.403 336.643 248.479 337.874 250.645 339.371ZM96.7357 340.384C97.9214 342.304 96.8187 346.658 94.9636 347.384C93.2258 348.064 91.0603 345.411 91.0603 342.604C91.0603 338.734 94.8102 337.267 96.7357 340.384ZM359.404 349.279C357.959 350.263 356.336 353.694 356.336 355.768C356.336 357.803 359.899 360.534 362.555 360.534C364.631 360.534 368.066 356.442 368.066 353.97C368.066 350.262 362.438 347.214 359.404 349.279ZM428.385 355.104C431.481 356.205 431.398 357.766 428.242 357.788C427.154 357.795 423.828 358.573 420.851 359.518C416.552 360.881 415.374 361.664 415.132 363.315C414.858 365.184 415.107 365.338 417.569 364.836C419.078 364.529 424.584 363.995 429.805 363.651C436.901 363.184 439.646 363.32 440.676 364.192C442.774 365.967 442.334 366.973 439.458 366.973C436.591 366.973 434.372 369.012 435.109 370.971C435.371 371.664 437.334 372.517 439.473 372.865C445.695 373.88 449.514 378.915 444.085 378.945C440.76 378.964 439.102 380.162 439.493 382.261C439.751 383.642 440.755 384.046 444.471 384.265C447.124 384.423 449.59 385.111 450.204 385.865C451.42 387.358 451.752 387.175 443.692 389.455C440.04 390.488 438.392 391.454 437.97 392.807C437.645 393.852 437.566 394.898 437.794 395.131C438.023 395.364 441.903 395.053 446.418 394.44C453.133 393.529 455.084 393.55 457.139 394.555C459.589 395.756 459.489 395.814 453.019 396.971C446.215 398.187 442.055 400.17 442.055 402.197C442.055 403.042 444.604 403.338 451.755 403.325C460.738 403.309 461.767 403.495 465.693 405.848C472.887 410.159 472.799 411.712 465.472 409.724C459.843 408.197 449.34 407.915 449.138 409.287C449.064 409.793 448.962 410.696 448.912 411.295C448.858 411.947 451.386 412.824 455.22 413.482C462.701 414.767 472.416 419.416 476.418 423.624C479.517 426.883 483.202 436.696 481.847 438.078C481.339 438.596 480.192 437.9 478.904 436.295C472.774 428.653 462.141 421.646 454.01 419.892C449.764 418.976 450.155 420.843 456.041 429.605C460.798 436.685 461.952 439.856 460.184 440.97C459.734 441.254 455.571 437.625 450.935 432.906C442.515 424.335 438.808 421.971 437.837 424.551C437.562 425.281 439.358 428.864 441.834 432.529C449.126 443.324 451.843 449.804 449.048 449.733C448.428 449.717 443.86 445.164 438.897 439.614C432.525 432.488 429.278 429.524 427.844 429.524C424.79 429.524 425.288 432.135 429.518 438.29C436.639 448.654 440.12 458.04 436.842 458.04C436.426 458.04 432.108 453.487 427.248 447.922C418.658 438.084 414.986 435.561 414.986 439.496C414.986 440.427 417.058 444.67 419.589 448.924C425.17 458.304 427.932 464.527 426.955 465.523C426.554 465.932 422.229 461.703 417.34 456.127C408.693 446.264 405.935 444.433 405.242 448.1C405.082 448.945 407.616 453.697 410.871 458.661C416.338 466.995 417.741 470.562 416.179 472.156C415.841 472.499 411.635 468.842 406.831 464.03C402.026 459.218 397.429 455.281 396.615 455.281C393.1 455.281 396.095 462.119 403.589 471.203C406.462 474.686 407.041 475.947 406.311 477.127C405.801 477.953 404.987 478.762 404.502 478.927C404.018 479.091 399.852 475.471 395.244 470.88C387.173 462.837 384.235 461.227 383.615 464.509C383.253 466.428 389.37 476.506 394.495 482.431C399.08 487.734 399.757 489.056 396.981 487.288C394.599 485.772 393.9 486.756 394.611 490.62C395.036 492.93 396.35 494.807 399.221 497.206C403.529 500.804 403.906 502.911 399.857 500.757C394.653 497.989 393.28 500.439 397.842 504.353C399.331 505.63 400.549 507.105 400.549 507.63C400.549 508.203 399.461 508.365 397.842 508.035C392.764 506.999 395.549 511.861 402.579 516.306C405.695 518.275 405.662 519.254 402.328 523.745C400.853 525.733 399.647 527.905 399.647 528.574C399.647 530.593 402.548 529.945 405.228 527.328C408.165 524.459 409.103 524.83 407.793 528.342C406.473 531.882 406.645 534.897 408.243 536.25C409.393 537.223 410.209 536.936 413.153 534.523C415.095 532.932 417.064 531.63 417.528 531.63C417.992 531.63 417.719 533.48 416.921 535.741C415.733 539.109 415.683 540.065 416.643 541.03C417.597 541.991 418.442 541.461 421.217 538.155L424.621 534.102L429.684 534.708C434.436 535.277 434.848 535.168 436.371 532.921C441.2 525.803 444.021 523.351 447.348 523.38C450.365 523.407 453.785 525.034 453.785 526.442C453.785 526.766 453.243 527.031 452.581 527.031C451.92 527.031 449.822 529.334 447.92 532.149C442.89 539.596 437.995 543.588 433.895 543.588C432.067 543.588 428.445 543.999 425.846 544.502C419.518 545.725 404.991 544.103 399.848 541.599C395.11 539.292 391.615 534.8 390.906 530.106C390.219 525.55 389.088 523.351 387.434 523.351C385.897 523.351 385.714 525.473 387.035 527.99C388.874 531.493 385.588 528.901 383.339 525.074C382.135 523.025 379.848 519.626 378.257 517.521C369.254 505.607 362.761 487.659 363.948 477.969C364.617 472.512 369.394 461.731 372.779 458.04C376.272 454.231 382.681 449.251 387.466 446.627C389.947 445.267 394.82 442.093 398.293 439.576C401.767 437.057 406.234 434.242 408.219 433.319C410.204 432.398 413.514 430.234 415.575 428.514C424.628 420.954 428.227 418.262 432.338 415.982C435.679 414.127 436.66 413.096 436.456 411.647C436.299 410.523 435.406 409.633 434.268 409.467C431.011 408.993 417.756 413.885 414.569 416.738L411.591 419.405L410.582 415.319C409.035 409.058 409.399 398.711 411.506 389.05C414.103 377.139 414.11 375.781 411.581 375.414C408.28 374.937 406.11 381.358 402.776 401.468L402.166 405.147L400.287 400.548C398.71 396.692 398.397 393.942 398.35 383.53C398.295 371.413 398.359 370.99 401 366.081C405.099 358.463 411.851 354.923 423.649 354.21C424.691 354.146 426.822 354.549 428.385 355.104ZM326.561 356.059C326.561 356.633 326.153 359.633 325.654 362.728C319.874 398.593 319.692 411.831 324.178 469.998C325.311 484.681 325.175 488.688 323.563 488.15C322.978 487.955 322.013 486.306 321.418 484.486C319.523 478.689 316.635 446.194 316.635 430.658C316.635 422.511 316.236 414.773 315.746 413.462C314.525 410.187 312.361 409.556 310.134 411.826C308.356 413.639 308.345 413.833 309.808 417.739C310.975 420.854 311.105 422.357 310.376 424.314L309.429 426.85L305.39 424.436C301.184 421.923 299.492 422.041 299.492 424.845C299.492 426.759 302.116 429.825 306.982 433.595C309.64 435.655 310.351 436.79 310.14 438.638C309.792 441.69 307.389 441.702 296.56 438.702C290.319 436.972 288.433 436.751 287.557 437.644C285.593 439.645 287.984 441.698 296.859 445.626C306.78 450.019 310.319 452.23 310.319 454.035C310.319 456.67 307.159 456.375 294.222 452.53C275.073 446.839 272.495 446.321 271.479 447.958C271.02 448.697 270.64 449.592 270.632 449.948C270.616 450.691 275.56 453.022 287.762 458.024C303.13 464.325 310.319 467.978 310.319 469.486C310.319 471.681 308.004 471.29 292.089 466.409C271.734 460.167 268.663 459.559 267.225 461.489C266.311 462.717 266.311 463.239 267.225 464.159C268.837 465.78 284.623 472.221 296.334 476.036C307.426 479.649 310.465 481.004 310.971 482.559C311.37 483.793 307.064 482.971 297.687 480.021C282.22 475.157 262.167 472.551 246.477 473.366C236.401 473.89 236.362 473.883 235.535 471.663C235.078 470.439 235.003 467.771 235.368 465.734C236.662 458.525 232.923 455.122 230.42 461.23C229.7 462.984 229.112 466.503 229.112 469.049V473.678H224.078H219.044L219.341 467.009C219.634 460.428 219.608 460.34 217.382 460.34C215.611 460.34 214.896 461.032 214.049 463.559C213.457 465.33 212.949 468.31 212.921 470.182C212.88 472.964 212.291 474.036 209.688 476.059C207.938 477.42 206.31 478.334 206.071 478.091C205.469 477.477 207.229 461.022 208.294 457.298C209.283 453.843 208.746 451.601 206.93 451.601C203.873 451.601 201.14 459.767 199.387 474.138C198.832 478.691 198.154 484.228 197.883 486.441L197.387 490.466L193.265 489.89C186.717 488.975 186.418 488.417 186.911 478C187.355 468.593 186.499 465.751 183.568 466.898C182.081 467.48 180.237 475.617 180.237 481.603C180.237 486.671 178.661 486.587 176.901 481.426C175.899 478.484 175.866 476.163 176.72 468.866C177.981 458.1 179.353 453.16 184.505 440.849C191.541 424.034 198.063 412.147 204.92 403.64C207.119 400.912 208.362 398.423 208.366 396.741C208.375 393.356 211.118 384.311 213.852 378.649C215.57 375.09 216.342 374.321 217.805 374.711C219.483 375.159 224.933 372.326 235.685 365.418C239.624 362.889 240.249 363.102 242.584 367.768L244.301 371.198L235.879 376.028C226.394 381.468 225.241 382.543 225.659 385.55C226.047 388.337 229.251 388.79 232.494 386.517C236.26 383.877 245.209 378.931 246.219 378.931C247.514 378.931 250.156 384.529 249.265 385.383C248.851 385.78 244.703 388.106 240.048 390.551C230.956 395.329 228.091 398.185 230.018 400.553C231.592 402.485 232.388 402.335 239.813 398.708C247.301 395.05 249.469 394.633 248.193 397.099C246.427 400.509 243.426 413.262 243.918 415.261C245.034 419.796 249.295 419.033 250.776 414.035C252.135 409.449 255.468 401.916 256.11 401.979C256.397 402.007 258.128 404.388 259.957 407.269C269.671 422.57 272.982 425.826 275.851 422.901C277.719 420.997 277.059 418.855 273.036 413.762C270.891 411.048 267.2 405.605 264.832 401.667C260.672 394.748 260.575 394.429 261.984 392.238C262.785 390.991 264.029 389.97 264.748 389.97C265.467 389.97 268.749 393.29 272.044 397.35C279.26 406.243 280.55 407.102 283.286 404.842C285.071 403.369 285.165 402.935 284.127 400.946C283.486 399.716 280.765 396.066 278.084 392.836C275.401 389.605 273.538 386.687 273.942 386.349C274.347 386.01 276.801 384.758 279.396 383.565L284.115 381.395L285.823 383.612C286.763 384.832 288.922 387.691 290.622 389.965C293.939 394.403 296.061 395.406 298.239 393.564C300.076 392.009 299.278 389.159 295.29 383.036C291.714 377.545 291.776 375.807 295.584 374.839C296.989 374.481 299.445 373.175 301.042 371.936L303.945 369.684L307.602 373.052C311.15 376.321 311.313 376.372 313.045 374.774C315.535 372.476 315.305 371.098 311.564 365.903C309.769 363.408 308.453 361.21 308.642 361.017C308.831 360.824 311.357 359.395 314.256 357.84C319.599 354.975 326.561 353.967 326.561 356.059ZM512.287 358.624C513.382 360.609 514.64 362.368 515.082 362.533C515.525 362.698 514.507 364.489 512.82 366.513C510.058 369.828 509.753 369.983 509.741 368.075C509.731 366.555 508.963 365.686 507.021 364.995C503.899 363.886 503.64 362.966 505.972 361.276C506.884 360.615 507.907 358.935 508.245 357.544C509.075 354.127 509.935 354.356 512.287 358.624ZM232.721 356.793C232.721 357.628 228.686 361.156 221.543 366.567L218.035 369.226L218.729 366.949C219.795 363.457 222.748 359.617 225.854 357.687C228.811 355.848 232.721 355.339 232.721 356.793ZM80.5025 358.74C82.8845 359.221 86.2113 359.614 87.8959 359.614C92.6357 359.614 96.022 363.075 95.9002 367.795C95.7739 372.705 94.5928 373.999 89.1519 375.188C79.5641 377.285 77.2659 376.003 77.3652 368.617C77.4085 365.439 77.1856 365.053 75.4559 365.307C73.8642 365.54 73.3156 366.54 72.527 370.652L71.5562 375.712L69.5603 371.802C67.2657 367.308 65.8022 366.774 65.7823 370.422C65.7742 371.813 65.3682 373.573 64.88 374.332C64.0896 375.558 63.8884 375.558 63.0673 374.332C62.5593 373.573 62.3148 371.944 62.5232 370.71C63.0078 367.851 62.3302 366.053 60.7683 366.053C58.9664 366.053 57.6752 369.1 57.6752 373.351C57.6752 377.699 56.7386 378.047 54.1318 374.668C51.5206 371.283 51.5982 365.096 54.2916 361.927C55.4086 360.614 57.8051 359.022 59.6187 358.391C63.1927 357.148 73.4573 357.32 80.5025 358.74ZM86.7743 362.095C85.6014 362.545 85.2025 369.322 86.1942 371.957C86.8763 373.77 89.5814 373.848 91.0079 372.096C92.6519 370.077 91.8227 364.162 89.7068 362.812C88.7143 362.179 87.3951 361.856 86.7743 362.095ZM296.785 363.709C296.785 365.461 288.927 370.952 287.32 370.323C286.636 370.055 285.653 369.033 285.138 368.051C284.304 366.462 284.72 366.062 288.914 364.422C294.704 362.158 296.785 361.97 296.785 363.709ZM392.09 373.367C391.086 378.451 389.939 382.611 389.542 382.611C388.799 382.611 388.346 377.926 388.596 372.845C388.748 369.757 392.183 363.03 393.261 363.709C393.622 363.936 393.095 368.283 392.09 373.367ZM135.384 368.726C138.348 370.042 141.415 370.474 147.674 370.456C157.91 370.428 159.385 371.259 163.234 379.23C168.567 390.275 168.993 404.822 164.302 415.726C160.136 425.41 157.214 425.233 159.28 415.422C162.4 400.599 158.727 378.011 153.197 378.011C151.531 378.011 151.378 378.403 151.853 381.461C153.442 391.68 153.489 400.787 151.995 408.367C150.374 416.586 148.222 421.416 147.045 419.475C146.682 418.875 146.576 411.246 146.812 402.523C147.2 388.088 147.092 386.513 145.603 384.994C144.059 383.42 143.903 383.416 142.829 384.914C142.203 385.787 140.801 390.489 139.714 395.365C136.666 409.04 135.36 412.966 133.856 412.966C133.116 412.966 132.27 412.33 131.977 411.552C131.684 410.773 132.152 402.805 133.016 393.844C134.656 376.846 134.652 376.796 131.238 368.583C130.403 366.575 130.551 366.581 135.384 368.726ZM190.217 371.342C190.334 373.746 190.505 376.746 190.597 378.011C190.896 382.119 189.15 381.068 186.162 375.341L183.236 369.736L185.171 368.354C188.736 365.808 189.985 366.548 190.217 371.342ZM278.431 375.668C278.285 376.151 276.242 377.35 273.892 378.333C267.581 380.974 266.562 379.211 271.633 374.423L275.581 370.695L277.138 372.744C277.995 373.87 278.576 375.186 278.431 375.668ZM127.741 376.86C128.508 379.982 126.684 395.414 125.39 396.733C124.732 397.404 124.448 395.197 124.455 389.464C124.471 376.473 126.103 370.211 127.741 376.86ZM175.441 378.789C179.607 385.209 180.202 400.293 176.628 408.947C175.645 411.327 175.474 410.636 174.88 401.928C174.455 395.683 173.403 389.669 171.903 384.91C169.103 376.026 169.059 375.252 171.352 375.252C172.431 375.252 174.057 376.659 175.441 378.789ZM76.6235 385.37C78.5688 386.382 81.6222 387.21 83.4079 387.21C85.3433 387.21 86.4297 387.582 86.0976 388.13C85.7908 388.636 84.4004 389.05 83.0081 389.05C81.615 389.05 79.3611 389.944 77.9977 391.038C75.824 392.781 75.5723 393.504 75.9494 396.918L76.3799 400.812L72.7418 401.405C68.5298 402.093 67.9289 401.49 67.0735 395.719C66.6269 392.71 66.1008 391.809 64.7907 391.809C63.3497 391.809 63.089 392.515 63.089 396.409C63.089 401.447 62.091 402.199 59.9102 398.806C56.6023 393.658 57.6788 387.046 62.2047 384.712C65.6118 382.955 72.5911 383.273 76.6235 385.37ZM310.676 397.805C309.603 399.476 309.514 400.394 310.287 401.866C311.564 404.299 314.481 404.314 315.751 401.893C318.04 397.533 313.304 393.717 310.676 397.805ZM356.854 402.141C357.205 403.271 357.51 409.169 357.531 415.25C357.588 431.938 355.853 435.253 353.329 423.279C352.498 419.338 351.132 415.414 350.294 414.559C348.862 413.1 348.885 412.876 350.681 410.916C351.733 409.767 352.864 407.585 353.196 406.067C354.295 401.03 354.646 400.088 355.434 400.088C355.864 400.088 356.502 401.012 356.854 402.141ZM92.725 420.095C95.9101 446.235 96.4281 451.035 96.0987 451.371C95.5231 451.958 92.827 441.792 90.9682 432.022C89.2647 423.069 88.7089 412.911 89.8575 411.74C91.2534 410.316 91.6883 411.583 92.725 420.095ZM225.558 415.691C223.945 416.707 224.863 420.157 228.233 425.742C229.709 428.187 230.917 430.816 230.917 431.584C230.917 432.351 228.712 434.341 226.018 436.006C219.58 439.984 214.082 446.544 215.61 448.422C217.352 450.562 218.802 450.066 226.487 444.7C232.462 440.529 234.041 439.806 235.476 440.588C237.439 441.66 242.837 448.931 246.596 455.565C248.494 458.916 249.556 459.92 250.97 459.704C255.129 459.071 254.955 456.859 249.972 447.039C247.367 441.905 245.388 437.238 245.574 436.67C245.76 436.1 248.93 434.352 252.618 432.783C259.715 429.765 261.316 427.662 257.925 425.811C256.337 424.945 254.3 425.146 247.508 426.837C242.865 427.993 238.928 428.761 238.76 428.542C238.592 428.324 236.534 425.559 234.186 422.402C229.559 416.174 227.425 414.515 225.558 415.691ZM518.931 416.83C518.335 417.437 517.848 419.01 517.848 420.325C517.848 423.232 519.357 424.925 521.949 424.925C524.163 424.925 526.871 422.264 526.871 420.089C526.871 416.573 521.39 414.323 518.931 416.83ZM82.5245 421.015C82.853 423.418 84.5231 432.008 86.2357 440.103C87.9483 448.198 89.9098 457.511 90.5947 460.8C92.5157 470.019 92.8423 483.797 91.1406 483.797C89.2854 483.797 85.6465 474.237 85.6465 469.361C85.6465 466.679 84.6494 457.487 83.4295 448.934C80.5882 428.999 79.6399 416.646 80.95 416.646C81.4869 416.646 82.1952 418.613 82.5245 421.015ZM116.776 425.78C125.8 430.035 134.035 434.539 137.867 437.317C140.163 438.981 144.562 441.27 147.644 442.402L153.249 444.463L160.641 442.429C166.133 440.919 168.544 440.633 170.021 441.32L172.011 442.244L170.347 449.912C166.511 467.601 164.405 488.118 163.753 514.152C163.544 522.5 162.539 536.988 161.518 546.348C158.501 574.037 158.277 577.953 158.373 601.467C158.463 623.627 158.492 623.954 160.503 625.613C164.881 629.227 167.162 627.019 175.028 611.552C184.11 593.696 192.798 581.323 196.267 581.308C196.82 581.305 198.296 586.693 199.605 593.491C204.095 616.807 207.955 627.693 214.644 635.906C216.86 638.626 218.285 641.321 218.285 642.791C218.285 644.12 218.93 649.694 219.718 655.176C220.948 663.723 220.973 665.366 219.892 666.688C209.442 679.487 206.339 682.409 202.585 682.983C200.409 683.316 197.032 683.076 194.761 682.426C192.563 681.798 187.49 681.266 183.487 681.243C176.884 681.205 175.723 681.482 170.937 684.236C165.882 687.144 165.454 687.231 160.619 686.332C148.825 684.139 138.45 687.303 131.572 695.189C125.76 701.851 124.061 706.431 124.082 715.374L124.101 722.963H118.408H112.715L112.74 708.475C112.753 700.506 113.2 685.502 113.733 675.13C114.963 651.177 115.023 652.234 111.604 637.477C108.761 625.202 108.713 624.618 108.684 602C108.656 579.632 108.59 578.803 106.265 571.644C103.775 563.974 101.851 546.807 102.246 535.769C102.355 532.734 102.756 521.557 103.138 510.933C103.519 500.308 104.585 483.73 105.506 474.092L107.182 456.569L104.987 440.517C103.78 431.689 102.792 423.349 102.791 421.986L102.79 419.508L107.978 421.793C110.832 423.051 114.791 424.845 116.776 425.78ZM74.7503 430.688C78.7132 456.469 79.8086 469.998 77.9345 469.998C76.1416 469.998 74.818 466.99 74.8243 462.93C74.8279 460.999 73.9455 451.524 72.8636 441.872C71.7817 432.221 71.2106 423.528 71.594 422.555C72.2554 420.879 72.3339 420.896 73.081 422.869C73.5142 424.015 74.2649 427.534 74.7503 430.688ZM475.44 441.997C475.44 445.695 474.031 446.135 472.581 442.89C471.805 441.155 471.834 440.287 472.702 439.22C474.334 437.216 475.44 438.338 475.44 441.997ZM28.5228 445.643C27.689 447.425 25.9891 449.277 24.7457 449.759C23.5024 450.241 22.4855 451.303 22.4855 452.119C22.4855 453.49 30.2777 461.6 31.6736 461.683C32.0129 461.703 34.4319 459.593 37.0495 456.994L41.8082 452.269L38.5627 449.405C36.777 447.83 34.8515 445.61 34.2831 444.472C32.75 441.401 30.2705 441.906 28.5228 445.643ZM129.137 460.064C128.542 460.671 128.055 462.244 128.055 463.559C128.055 468.172 133.052 469.929 135.605 466.213C138.464 462.051 132.63 456.503 129.137 460.064ZM368.509 471.261C366.846 473.85 365.271 482.793 365.987 485.585C366.895 489.125 368.415 487.009 369.628 480.514C370.283 477.007 371.057 473 371.35 471.608C372.011 468.455 370.437 468.263 368.509 471.261ZM501.863 472.068C501.386 472.701 500.257 476.9 499.355 481.4C498.233 486.989 497.148 490.051 495.929 491.059C494.949 491.871 493.123 493.397 491.873 494.45L489.598 496.365L493.121 499.049C498.129 502.866 498.73 503.879 499.353 509.553C500.022 515.658 501.12 518.619 502.986 519.349C505.218 520.222 507.923 517.015 507.923 513.497C507.923 506.992 509.803 502.086 513.043 500.137C518.659 496.759 518.544 494.346 512.617 491.218C510.11 489.895 509.154 487.512 507.888 479.439C507.359 476.057 506.491 472.755 505.96 472.104C504.737 470.601 502.981 470.586 501.863 472.068ZM76.5874 479.179C79.4729 480.679 80.4357 481.934 82.0553 486.308C83.1372 489.227 84.2371 493.955 84.5006 496.814C84.9941 502.181 84.2425 508.638 83.1245 508.627C82.7744 508.623 81.7819 505.634 80.9184 501.985C78.7827 492.96 75.2186 485.766 72.2401 484.465C70.9291 483.892 69.7525 483.368 69.6261 483.3C69.0261 482.974 71.493 477.357 72.2365 477.357C72.7039 477.357 74.6619 478.177 76.5874 479.179ZM265.976 482.576C275.011 483.089 276.526 483.419 278.796 485.368L281.372 487.576L281.36 505.279C281.353 515.016 281.789 527.412 282.33 532.827C283.465 544.206 283.016 545.768 277.99 547.923C272.934 550.088 241.331 549.767 225.258 547.386C213.416 545.632 209.835 541.964 208.34 530.059C207.216 521.106 206.759 501.948 207.481 494.116C208.17 486.654 210.112 483.544 215.077 481.952C217.814 481.075 245.556 481.414 265.976 482.576ZM222.137 489.147C215.658 490.087 212.82 507.173 215.948 526.413C217.552 536.28 218.9 538.579 223.921 540.013C229.598 541.634 271.019 541.696 272.598 540.086C273.518 539.147 273.705 534.317 273.452 518.036C273.274 506.569 272.786 496.269 272.367 495.148C271.949 494.026 270.742 492.636 269.684 492.058C266.909 490.544 228.661 488.202 222.137 489.147ZM504.314 494.889C504.314 495.366 503.705 495.755 502.96 495.755C501.565 495.755 501.167 494.669 502.183 493.634C502.904 492.899 504.314 493.729 504.314 494.889ZM73.2642 497.768C74.1458 499.579 75.0914 503.902 75.3648 507.377L75.8619 513.692L73.1613 509.451C71.6762 507.119 69.3898 504.351 68.0805 503.301L65.7002 501.393L67.6014 497.594C69.8111 493.176 71.0473 493.215 73.2642 497.768ZM337.876 496.736C338.204 497.275 338.287 497.906 338.061 498.136C336.323 499.906 297.252 503.895 292.799 502.755C285.945 501.002 294.204 497.823 306.259 497.574C309.733 497.504 316.432 497.127 321.147 496.738C334.166 495.666 337.228 495.665 337.876 496.736ZM129.548 502.957C127.589 505.163 127.653 507.977 129.705 509.87C131.85 511.849 133.731 511.797 135.584 509.71C137.466 507.591 137.499 504.594 135.66 502.719C133.776 500.799 131.38 500.891 129.548 502.957ZM261.858 506.302C264.289 507.381 263.2 509.034 259.719 509.553C257.237 509.923 256.305 510.697 254.959 513.504C253.406 516.746 253.386 517.299 254.672 521.283C256.296 526.311 256.095 526.935 253.051 526.342C251.272 525.995 250.58 525.077 249.849 522.095C247.579 512.835 244.694 510.151 235.728 508.959C231.28 508.367 229.112 507.285 229.112 505.656C229.112 504.586 259.333 505.182 261.858 506.302ZM95.5718 508.573C95.5718 509.552 94.9329 513.381 94.1534 517.082C93.0562 522.283 92.6573 531.332 92.3939 556.926C92.1936 576.407 91.561 594.208 90.8572 600.16C89.1988 614.19 89.5814 625.365 92.2883 642.015C96.5354 668.136 96.7502 672.025 94.7263 686.089C93.7374 692.963 92.6501 704.071 92.31 710.775C91.7578 721.679 91.5213 722.963 90.0641 722.963C87.0495 722.963 86.8492 716.161 89.049 688.468C89.4109 683.915 89.6942 670.669 89.6779 659.032C89.6545 641.805 89.3197 636.167 87.8733 628.676C86.4098 621.095 86.1094 615.84 86.1653 598.781C86.2519 572.148 87.8616 541.346 89.6256 532.55C90.9439 525.977 93.7554 508.943 93.7636 507.483C93.7654 507.103 94.1732 506.793 94.6695 506.793C95.1657 506.793 95.5718 507.595 95.5718 508.573ZM66.7676 511.322C69.7028 514.314 70.3164 518.969 68.1707 521.961C66.9671 523.639 66.9129 523.638 66.0215 521.907C65.5189 520.931 64.8214 518.777 64.4731 517.12C64.1239 515.463 62.8219 512.876 61.5785 511.371L59.3192 508.633H61.7247C63.1801 508.633 65.1715 509.695 66.7676 511.322ZM197.08 514.265C197.08 517.381 193.918 517.147 192.152 513.899C190.924 511.639 190.92 511.247 192.112 510.487C194.038 509.259 197.08 511.572 197.08 514.265ZM21.7636 511.577C21.1681 512.184 20.6809 513.757 20.6809 515.072C20.6809 519.709 25.6814 521.437 28.2566 517.689C31.0537 513.618 25.1825 508.091 21.7636 511.577ZM444.762 512.313C446.473 513.678 446.658 514.117 445.529 514.132C444.71 514.143 441.93 515.601 439.348 517.372C436.767 519.143 434.29 520.591 433.844 520.591C432.233 520.591 432.638 515.475 434.48 512.543C436.16 509.869 441.547 509.749 444.762 512.313ZM316.087 514.963C317.502 516.558 317.509 516.81 316.162 518.182C314.426 519.952 312.883 520.077 311.402 518.568C309.975 517.113 310.035 516.412 311.737 514.678C313.565 512.815 314.218 512.857 316.087 514.963ZM233.049 515.522C242.02 517.459 242.873 518.545 237.505 521.195C231.888 523.968 229.46 523.973 228.78 521.209C228.49 520.031 227.228 518.591 225.976 518.009C223.699 516.952 223.167 515.92 224.3 514.766C225.129 513.92 225.968 513.992 233.049 515.522ZM298.064 514.711C299.865 515.415 299.912 518.17 298.15 519.661C296.578 520.992 294.263 520.314 293.505 518.301C292.973 516.888 294.565 514.152 295.919 514.152C296.314 514.152 297.279 514.403 298.064 514.711ZM82.8809 527.115C82.3441 531.875 81.6782 541.254 81.402 547.958C81.1259 554.662 80.6297 560.146 80.3004 560.146C79.9701 560.146 79.0019 556.72 78.1484 552.533C76.8797 546.309 76.7525 543.413 77.4527 536.665C77.9228 532.125 78.9496 526.583 79.7337 524.35C81.1431 520.336 82.8872 517.472 83.527 518.123C83.7083 518.309 83.4178 522.355 82.8809 527.115ZM175.575 551.386C175.533 563.749 175.728 574.099 176.009 574.386C176.775 575.167 179.281 573.974 179.806 572.579C180.06 571.906 180.512 567.281 180.812 562.301C181.112 557.321 181.796 549.19 182.333 544.232C183.146 536.72 183.553 535.264 184.774 535.504C186.02 535.749 186.251 537.378 186.317 546.359C186.359 552.288 186.867 558.09 187.474 559.577C188.873 563.01 188.464 564.153 182.104 574.549C179.175 579.336 176.762 583.539 176.741 583.888C176.72 584.237 175.324 586.115 173.638 588.06C169.39 592.963 168.269 591.925 169.013 583.772C169.337 580.212 169.809 572.508 170.062 566.653C170.314 560.797 170.9 552.281 171.364 547.728C171.828 543.174 172.473 536.645 172.796 533.218C173.254 528.361 173.634 527.199 174.518 527.947C175.377 528.673 175.635 534.375 175.575 551.386ZM361.526 530.935C360.787 533.198 331.068 537.89 316.184 538.092C304.675 538.248 304.44 538.237 305.114 537.55C305.76 536.891 318.375 534.679 328.365 533.473C332.583 532.965 340.095 531.97 345.058 531.264C357.039 529.558 362.009 529.459 361.526 530.935ZM491.782 538.759C491.22 540.151 490.19 544.6 489.491 548.648C487.768 558.625 485.818 564.099 482.109 569.362C478.206 574.9 471.65 579.251 463.916 581.437C457.242 583.325 456.184 584.052 456.637 586.45C456.844 587.547 458.887 588.819 462.651 590.193C479.249 596.25 484.775 603.892 489.486 627.297C491.435 636.976 491.606 637.415 493.436 637.415C496.024 637.415 496.857 635.661 498.747 626.224C502.124 609.376 509.775 598.047 521.644 592.322C524.767 590.815 527.8 589.583 528.386 589.583C529.617 589.582 532.285 587.063 532.285 585.902C532.285 584.293 529.385 582.241 525.703 581.243C512.081 577.552 502.227 565.502 499.8 549.567C498.103 538.424 497.299 536.229 494.914 536.229C493.46 536.229 492.485 537.017 491.782 538.759ZM195.865 544.125C195.524 551.048 195.413 551.426 193.983 550.525C192.949 549.874 192.653 541.034 193.582 538.566C193.892 537.743 194.602 537.227 195.161 537.417C195.826 537.643 196.07 539.963 195.865 544.125ZM303.552 538.069C303.245 538.575 302.588 538.989 302.092 538.989C301.596 538.989 301.441 538.575 301.747 538.069C302.054 537.563 302.711 537.149 303.207 537.149C303.703 537.149 303.859 537.563 303.552 538.069ZM124.495 542.076C124.057 543.249 122.243 545.608 120.464 547.32C116.546 551.087 116.399 553.027 119.832 555.616C121.265 556.695 122.957 558.57 123.594 559.782C124.23 560.994 125.31 561.986 125.995 561.986C127.603 561.986 136.175 553.262 136.175 551.624C136.175 550.936 134.963 549.461 133.484 548.344C132.003 547.228 130.19 545.131 129.456 543.683C127.626 540.074 125.498 539.385 124.495 542.076ZM24.3803 548.257C23.4528 549.813 21.8349 551.699 20.7847 552.448C19.7353 553.198 18.8763 554.314 18.8763 554.928C18.8763 556.159 26.3103 564.745 27.3759 564.745C28.6572 564.745 36.02 556.598 36.02 555.18C36.02 554.393 34.9841 553.057 33.7182 552.212C32.4523 551.366 30.8173 549.494 30.0856 548.051C28.3649 544.658 26.4872 544.726 24.3803 548.257ZM334.592 549.66C336.379 554.7 341.437 559.149 352.023 564.993C359.245 568.979 362.795 571.611 366.293 575.571C371.1 581.011 374.237 586.357 373.227 587.387C372.91 587.71 369.653 585.239 365.989 581.896C360.274 576.682 351.277 570.957 336.419 563.08C335.169 562.417 333.587 560.968 332.905 559.861C331.492 557.566 329.257 547.586 329.987 546.84C331.418 545.383 333.534 546.679 334.592 549.66ZM353.54 548.551C356.07 551.297 354.475 552.729 351.857 550.06C349.971 548.137 349.445 546.348 350.766 546.348C351.175 546.348 352.424 547.339 353.54 548.551ZM208.52 550.635C209.431 551.476 211.087 552.616 212.2 553.168C214.813 554.465 218.164 561.575 220.198 570.144C221.729 576.585 224.046 580.841 225.517 579.914C225.888 579.68 226.483 576.723 226.837 573.343C228.24 560.002 232.721 559.146 232.721 572.219C232.721 578.681 236.719 575.75 238.52 567.965C239.776 562.541 241.388 561.066 246.051 561.07C250.807 561.073 255.363 563.39 257.251 566.765C257.904 567.931 259.863 572.196 261.605 576.244C266.626 587.91 269.424 585.351 266.642 571.638C265.208 564.565 265.376 562.469 267.443 561.66C271.675 560.004 274.278 564.554 277.364 579.003C279.383 588.46 281.137 590.849 283.189 586.939C283.811 585.755 283.684 582.086 282.787 575.211C280.913 560.857 280.998 557.386 283.225 557.386C284.602 557.386 285.303 558.478 286.326 562.216C287.053 564.872 287.775 567.829 287.93 568.786C288.354 571.399 290.9 572.728 292.649 571.249C294.468 569.709 294.515 563.76 292.756 557.799C291.564 553.764 291.578 553.159 292.896 551.674C293.7 550.769 294.813 550.027 295.371 550.027C297.589 550.027 302.893 558.665 305.257 566.125C306.059 568.655 307.542 572.107 308.552 573.796C310.065 576.324 310.624 576.671 311.709 575.753C313.682 574.084 313.305 569.153 310.695 562.506C309.412 559.241 308.513 555.822 308.696 554.908C308.969 553.542 309.619 553.897 312.348 556.903C317.024 562.055 320.514 568.87 319.743 571.346C318.577 575.09 313.057 583.008 311.192 583.612C309.796 584.064 308.329 583.274 305.333 580.459C298.266 573.819 295.705 575.481 286.976 592.372C283.96 598.207 280.593 603.967 279.492 605.17L277.492 607.359L273.799 603.202C271.768 600.914 265.985 592.879 260.947 585.344C249.581 568.345 248.239 566.585 246.644 566.585C244.991 566.585 241.389 571.703 236.446 581.076C232.201 589.126 229.745 592.341 227.841 592.341C225.808 592.341 216.694 576.554 213.726 567.89C212.18 563.377 209.731 557.519 208.283 554.87C206.836 552.222 205.652 549.842 205.652 549.581C205.652 548.67 206.878 549.12 208.52 550.635ZM378.554 571.918C379.322 574.832 378.35 575.479 376.192 573.49C375.01 572.398 374.39 570.674 374.402 568.512L374.422 565.205L376.21 567.505C377.193 568.77 378.248 570.755 378.554 571.918ZM47.6759 571.735C46.9676 572.605 46.2575 576.832 45.9363 582.084C45.3074 592.365 44.4042 594.527 39.8178 596.728C35.4506 598.825 35.5869 600.662 40.2743 602.882C45.0015 605.121 45.8388 607.167 46.169 617.286C46.4397 625.565 47.4981 628.216 50.5353 628.216C52.9056 628.216 53.78 625.955 54.4522 618.098C55.1794 609.588 57.1473 605.257 61.232 603.179C66.3255 600.588 66.4356 599.203 61.8149 595.882C57.2421 592.596 55.5142 589.084 54.1012 580.206C53.5932 577.015 53.1745 574.123 53.1709 573.779C53.161 572.905 50.4793 570.265 49.6005 570.265C49.2008 570.265 48.3346 570.926 47.6759 571.735ZM497.019 581.232L500.853 584.84L498.099 587.778C496.584 589.394 495.103 591.496 494.806 592.448C494.017 594.981 492.997 594.588 490.886 590.94C489.854 589.157 488.393 587.457 487.639 587.162C486.885 586.866 486.268 586.256 486.268 585.804C486.268 585.178 489.387 581.484 493.111 577.7C493.152 577.658 494.911 579.247 497.019 581.232ZM218.303 598.833C220.677 603.202 223.472 607.096 224.69 607.736C225.882 608.361 229.767 608.878 233.324 608.885C240.891 608.902 242.647 609.422 242.647 611.65C242.647 613.776 240.177 614.391 231.566 614.406C225.867 614.416 224.436 614.705 223.97 615.944C223.593 616.945 224.238 618.206 225.853 619.623C228.029 621.531 229.223 621.777 236.285 621.777C242.293 621.777 244.378 622.096 244.744 623.067C245.427 624.883 244.588 625.457 241.255 625.457C239.664 625.457 237.07 625.72 235.494 626.041C233.232 626.503 232.685 627.034 232.9 628.562C233.335 631.654 237.439 632.938 248.205 633.355C258.806 633.764 259.79 633.999 259.79 636.113C259.79 638.47 255.25 639.471 246.924 638.949C239.826 638.504 238.335 638.069 232.334 634.691C221.33 628.499 217.673 622.964 214.162 607.185C211.765 596.415 211.332 590.132 213.026 590.708C213.608 590.906 215.983 594.562 218.303 598.833ZM338.975 599.906C338.511 601.326 335.307 602.25 330.449 602.368C326.763 602.457 325.046 601.456 326.048 599.802C326.857 598.467 339.412 598.569 338.975 599.906ZM303.637 607.176C305.408 609.637 310.067 618.049 313.991 625.87C320.552 638.952 321.08 640.412 320.584 644.105C320.132 647.471 320.648 649.593 323.778 657.231C325.832 662.243 327.956 669.083 328.499 672.433C329.628 679.405 328.658 682.539 323.559 688.393C320.896 691.449 320.465 691.623 317.416 690.884C312.832 689.773 305.279 691.191 301.232 693.921C298.901 695.493 296.988 697.99 295.198 701.79C292.757 706.977 292.483 707.245 291.178 705.73C288.766 702.934 286.205 696.948 285.171 691.688C283.722 684.316 283.277 677.601 282.816 656.141C282.527 642.658 281.997 635.588 281.032 632.356C278.962 625.413 279.237 623.881 283.291 619.789C285.298 617.763 288.424 613.759 290.237 610.893C292.049 608.025 294.536 604.549 295.763 603.167C298.362 600.238 298.801 600.461 303.637 607.176ZM350.697 610.613C352.468 610.811 352.015 614.25 350.08 615.306C347.842 616.527 329.234 616.55 326.102 615.336C324.552 614.735 323.827 613.853 324.022 612.806C324.269 611.484 325.602 611.117 331.532 610.739C337.948 610.33 347.588 610.266 350.697 610.613ZM102.632 643.394C103.754 649.741 104.192 654.885 103.808 657.193C102.972 662.217 102.163 660.454 100.136 649.193C97.7328 635.849 97.0425 627.345 97.8564 621.145L98.5593 615.798L99.7016 624.537C100.33 629.343 101.649 637.829 102.632 643.394ZM134.394 623.096C133.935 624.326 132.321 626.267 130.807 627.408C129.293 628.549 128.055 630.32 128.055 631.344C128.055 633.369 134.954 641.095 136.761 641.095C137.373 641.095 139.971 639.044 142.535 636.539L147.196 631.982L144.046 628.95C142.314 627.282 140.193 624.779 139.334 623.387C137.403 620.26 135.493 620.147 134.394 623.096ZM331.132 622.655C333.829 623.137 340.076 623.724 345.015 623.958C352.162 624.298 354.229 624.71 355.137 625.977C356.692 628.144 356.13 628.753 350.953 630.506C347.571 631.65 344.958 631.861 340.137 631.377C334.636 630.824 333.779 630.937 333.779 632.218C333.779 634.236 339.576 637.049 345.058 637.689C347.539 637.98 353.63 637.903 358.592 637.518C368.105 636.781 371.969 637.406 371.162 639.549C370.377 641.634 362.058 643.05 349.569 643.228C338.617 643.383 337.645 643.254 334.913 641.267C331.223 638.583 323.047 621.777 325.432 621.777C325.87 621.777 328.435 622.172 331.132 622.655ZM454.234 629.826C453.374 631.218 451.196 633.703 449.393 635.349L446.115 638.343L448.86 640.868C450.37 642.257 452.308 644.532 453.167 645.924C455.166 649.162 457.79 649.151 459.677 645.896C460.493 644.488 462.342 642.645 463.788 641.798C467.059 639.885 467.118 638.111 463.995 635.607C462.663 634.539 460.619 632.232 459.451 630.48C456.889 626.636 456.254 626.557 454.234 629.826ZM27.394 635.07C25.5903 637.877 26.396 640.855 29.3276 642.217C33.5856 644.195 37.1262 637.754 33.7002 634.261C31.6366 632.158 29.0533 632.489 27.394 635.07ZM180.891 640.38C179.102 642.982 179.107 645.176 180.903 647.009C182.939 649.083 186.368 648.794 188.006 646.409C189.863 643.707 189.778 642.389 187.606 640.175C185.24 637.762 182.634 637.842 180.891 640.38ZM250.316 646.279C257.264 646.572 263.337 647.184 263.812 647.64C264.355 648.159 264.173 648.98 263.319 649.85C262.327 650.862 258.891 651.392 250.5 651.825C240.253 652.354 239.037 652.594 239.037 654.082C239.037 656.749 241.678 657.52 253.104 658.19C264.157 658.837 267.009 659.561 267.009 661.722C267.009 663.646 261.409 664.272 254.982 663.064C248.454 661.838 246.256 662.296 246.256 664.882C246.256 666.227 247.655 667.153 252.121 668.76C257.556 670.716 259.24 672.392 257.116 673.73C254.497 675.379 238.492 668.856 234.483 664.504C232.373 662.215 230.962 653.981 231.65 647.974C232.02 644.737 232.153 644.621 234.861 645.172C236.414 645.487 243.368 645.986 250.316 646.279ZM364.235 653.743C364.515 654.607 362.566 654.893 356.411 654.893C351.903 654.893 348.216 654.507 348.216 654.037C348.216 652.02 363.585 651.739 364.235 653.743ZM342.93 660.02C344.564 660.881 348.657 661.59 353.037 661.771C361.911 662.137 365.359 662.943 365.359 664.651C365.359 665.577 364.05 665.941 360.622 665.968C355.323 666.009 345.96 669.606 345.96 671.6C345.96 672.492 348.071 672.967 353.63 673.329C361.537 673.843 365.359 675.167 365.359 677.392C365.359 678.295 364.238 678.642 361.525 678.578C353.983 678.398 346.862 681.727 347.507 685.13C347.722 686.262 348.892 686.648 352.3 686.708C356.938 686.789 359.187 687.929 367.835 694.582C371.319 697.262 372.272 697.534 378.405 697.597C383.663 697.651 385.501 698.035 386.757 699.337C388.309 700.945 388.276 700.985 385.887 700.387C381.848 699.378 376.187 701.792 376.187 704.523C376.187 704.933 379.599 705.558 383.768 705.912C389.906 706.433 391.688 706.935 393.123 708.551C396.416 712.254 398.001 715.484 397.429 717.322C396.344 720.81 387.797 722.25 382.24 719.883C380.087 718.966 378.632 717.226 376.663 713.214C372.829 705.397 364.38 697.08 358.263 695.097C352.766 693.315 349.363 693.128 346.019 694.424C340.992 696.373 344.573 699.047 352.208 699.047C353.784 699.047 355.575 699.558 356.188 700.184C357.074 701.086 356.321 701.513 352.534 702.253C348.511 703.04 347.717 703.53 347.46 705.384C347.16 707.546 347.241 707.571 352.512 706.964C359.484 706.159 361.998 707.24 364.9 712.287C368.808 719.086 366.301 721.484 355.446 721.335C350.223 721.263 349.383 720.988 347.662 718.786C346.6 717.428 345.182 714.623 344.511 712.55C343.809 710.382 341.081 706.374 338.084 703.108C335.22 699.986 332.888 697.071 332.902 696.63C332.915 696.189 334.143 694.188 335.63 692.184C340.735 685.306 342.338 674.642 339.634 665.555C337.413 658.089 337.856 657.345 342.93 660.02ZM132.255 663.014C130.272 665.249 130.366 668.041 132.492 670.002C134.832 672.162 138.084 671.514 139.701 668.567C140.893 666.395 140.87 665.894 139.484 663.737C137.66 660.9 134.42 660.575 132.255 663.014ZM495.497 663.787C494.867 664.046 493.738 665.466 492.989 666.942C491.449 669.979 492.271 672.563 495.303 674.217C497.533 675.434 502.113 673.251 502.947 670.576C504.207 666.525 499.431 662.174 495.497 663.787ZM248.84 684.24C250.397 685.369 251.67 686.887 251.67 687.611C251.67 689.751 247.006 689.178 239.504 686.116C227.288 681.129 220.762 683.849 230.665 689.801C236.501 693.308 242.647 698.826 242.647 700.559C242.647 701.185 242.235 701.957 241.733 702.274C240.792 702.866 239.425 702.242 230.917 697.34C226.45 694.767 220.089 693.445 220.089 695.089C220.089 695.443 222.728 698.244 225.954 701.313C232 707.066 232.823 708.576 230.428 709.513C229.524 709.866 227.003 708.128 223.232 704.552C220.04 701.524 216.796 699.047 216.023 699.047C213.166 699.047 213.64 701.832 217.292 706.509C220.52 710.643 222.085 714.685 220.457 714.685C220.164 714.685 217.336 711.954 214.174 708.618C211.012 705.281 207.913 702.724 207.287 702.937C206.662 703.149 205.879 704.676 205.547 706.329C204.701 710.543 203.725 711.263 200.136 710.32C197.718 709.685 196.404 708.379 193.834 704.053C191.739 700.527 189.898 698.483 188.646 698.292C186.335 697.943 186.338 697.927 188.058 702.125C189.52 705.692 189.84 709.165 188.706 709.165C188.319 709.165 187.53 707.888 186.951 706.328C186.22 704.351 185.408 703.589 184.272 703.814C182.899 704.087 182.692 704.897 182.954 708.98C183.523 717.84 179.41 721.146 168.079 720.939C161.177 720.813 160.898 720.718 157.605 717.395C154.092 713.851 153.243 710.665 155.567 709.755C156.441 709.414 157.386 710.159 158.256 711.875C159.891 715.098 161.453 714.847 166.419 710.561C169.614 707.805 169.888 707.254 168.901 705.593C167.953 704.001 168.066 703.529 169.668 702.385C170.7 701.648 172.824 699.055 174.388 696.623C178.238 690.634 181.598 689.928 195.429 692.204C208.734 694.393 211.045 693.74 217.579 685.947C220.2 682.819 223.81 678.703 225.6 676.798L228.856 673.335L237.433 677.76C242.15 680.194 247.284 683.11 248.84 684.24ZM374.559 688.593C378.03 691.045 378.929 692.61 376.864 692.604C374.862 692.598 369.871 688.999 369.871 687.562C369.871 685.637 370.603 685.798 374.559 688.593ZM524.321 693.816C521.631 696.736 521.798 700.303 524.737 702.659C526.045 703.708 527.614 704.566 528.225 704.566C528.835 704.566 530.404 703.708 531.712 702.659C534.703 700.261 534.883 696.193 532.114 693.563C529.52 691.099 526.743 691.189 524.321 693.816ZM159.125 695.344C161.986 696.454 162.019 697.338 159.316 700.541C157.423 702.786 156.546 703.07 151.253 703.157C146.843 703.228 144.841 703.69 143.475 704.951C141.105 707.137 137.988 713.703 137.951 716.585C137.923 718.752 137.88 718.767 136.598 717.038C135.018 714.909 134.879 710.74 136.294 707.955C138.161 704.283 143.64 697.947 146.468 696.189C149.5 694.304 155.422 693.909 159.125 695.344ZM324.27 701.837C325.434 703.022 325.009 703.186 320.758 703.186C317.269 703.186 315.394 703.674 314.023 704.938C311.655 707.123 311.437 709.659 313.703 708.678C316.44 707.49 328.696 707.268 331.309 708.359C334.392 709.645 335.252 712.731 333.494 716.198C330.952 721.207 328.961 722.271 321.479 722.611C309.832 723.142 303.956 719.014 304.035 710.361C304.073 706.159 305.693 702.918 308.614 701.199C311.47 699.518 322.433 699.964 324.27 701.837ZM386.613 715.549C384.885 717.495 385.613 718.364 388.97 718.364C390.872 718.364 391.526 717.921 391.526 716.632C391.526 714.273 388.364 713.576 386.613 715.549ZM354.757 715.293C354.138 715.549 353.63 716.344 353.63 717.061C353.63 717.968 354.727 718.364 357.239 718.364C361.115 718.364 361.926 717.177 359.103 715.637C357.236 714.618 356.534 714.563 354.757 715.293Z" fill="black"/>
</svg>
